<svg width="27" height="24" viewBox="0 0 27 24" fill="none" xmlns="http://www.w3.org/2000/svg">
<path d="M24.7556 14.1243L26.9716 4.37433C27.1315 3.67036 26.5965 3 25.8745 3H7.46288L7.03322 0.899531C6.92616 0.375985 6.46547 0 5.93105 0H1.125C0.503672 0 0 0.503672 0 1.125V1.875C0 2.49633 0.503672 3 1.125 3H4.40077L7.69364 19.0985C6.90586 19.5516 6.375 20.401 6.375 21.375C6.375 22.8248 7.55025 24 9 24C10.4498 24 11.625 22.8248 11.625 21.375C11.625 20.6403 11.3228 19.9765 10.8364 19.5H20.6636C20.1772 19.9765 19.875 20.6403 19.875 21.375C19.875 22.8248 21.0503 24 22.5 24C23.9498 24 25.125 22.8248 25.125 21.375C25.125 20.3357 24.5209 19.4376 23.6447 19.0123L23.9033 17.8743C24.0633 17.1704 23.5283 16.5 22.8063 16.5H10.2242L9.91744 15H23.6586C24.1839 15 24.6392 14.6365 24.7556 14.1243Z" fill="white"/>
</svg>
