<?xml version="1.0" encoding="utf-8"?>
<!-- Generator: Adobe Illustrator 25.2.1, SVG Export Plug-In . SVG Version: 6.00 Build 0)  -->
<!DOCTYPE svg PUBLIC "-//W3C//DTD SVG 1.0//EN" "http://www.w3.org/TR/2001/REC-SVG-20010904/DTD/svg10.dtd" [
	<!ENTITY st0 "fill:#231F20;">
]>
<svg version="1.0" id="Layer_1" xmlns="http://www.w3.org/2000/svg" xmlns:xlink="http://www.w3.org/1999/xlink" x="0px" y="0px"
	 viewBox="0 0 31 28" style="enable-background:new 0 0 31 28;" xml:space="preserve">
<g>
	<path style="&st0;" d="M24.5,27.3h-6c-3.2,0-5.8-2.6-5.8-5.8V20c0-0.7,0.6-1.2,1.2-1.2s1.2,0.6,1.2,1.2v1.5c0,1.8,1.5,3.2,3.2,3.2
		h6c1.8,0,3.2-1.5,3.2-3.2v-15c0-1.8-1.5-3.3-3.2-3.3h-6c-1.8,0-3.2,1.5-3.2,3.3V8c0,0.7-0.6,1.2-1.2,1.2S12.8,8.7,12.8,8V6.5
		c0-3.2,2.6-5.8,5.8-5.8h6c3.2,0,5.8,2.6,5.8,5.8v15C30.2,24.7,27.7,27.3,24.5,27.3z M8,21.3c-0.3,0-0.6-0.1-0.9-0.4l-6-6l0,0l0,0
		l0,0l0,0l0,0l0,0l0,0l0,0l0,0l0,0l0,0c-0.1-0.1-0.2-0.3-0.3-0.4c-0.1-0.1-0.1-0.3-0.1-0.5l0,0l0,0l0,0l0,0l0,0l0,0l0,0l0,0
		c0-0.2,0-0.3,0.1-0.5l0,0l0,0l0,0c0.1-0.1,0.2-0.3,0.3-0.4l0,0l6-6c0.5-0.5,1.3-0.5,1.8,0s0.5,1.3,0,1.8L5,12.7h18
		c0.7,0,1.2,0.6,1.2,1.2c0,0.7-0.6,1.2-1.2,1.2H5L8.9,19c0.5,0.5,0.5,1.3,0,1.8C8.6,21.1,8.3,21.3,8,21.3z"/>
</g>
</svg>
