<svg width="29" height="30" viewBox="0 0 29 30" fill="none" xmlns="http://www.w3.org/2000/svg">
<path fill-rule="evenodd" clip-rule="evenodd" d="M10.8169 26.4022C11.1547 26.1407 11.6553 26.1846 11.9351 26.5003C12.2871 26.8973 12.6968 27.2032 13.1361 27.4084C13.5746 27.6133 14.0375 27.7158 14.5 27.7158C14.9625 27.7158 15.4255 27.6133 15.864 27.4084C16.3032 27.2032 16.713 26.8973 17.065 26.5003C17.3448 26.1846 17.8454 26.1407 18.1831 26.4022C18.5208 26.6637 18.5678 27.1315 18.288 27.4471C17.8057 27.9912 17.225 28.4319 16.5743 28.7359C15.9227 29.0404 15.2174 29.2 14.5 29.2C13.7827 29.2 13.0773 29.0404 12.4258 28.7359C11.775 28.4319 11.1943 27.9912 10.712 27.4471C10.4322 27.1315 10.4792 26.6637 10.8169 26.4022Z" fill="white"/>
<path fill-rule="evenodd" clip-rule="evenodd" d="M14.5 1C14.9386 1 15.2941 1.33225 15.2941 1.7421V3.22631C15.2941 3.63617 14.9386 3.96842 14.5 3.96842C14.0614 3.96842 13.7059 3.63617 13.7059 3.22631V1.7421C13.7059 1.33225 14.0614 1 14.5 1Z" fill="white"/>
<path fill-rule="evenodd" clip-rule="evenodd" d="M4.17647 12.1316C4.17647 6.80348 8.79847 2.48421 14.5 2.48421C20.2015 2.48421 24.8235 6.80348 24.8235 12.1316V17.8932C24.8235 18.6291 25.2684 19.3019 25.9728 19.631L26.4758 19.866C27.4099 20.3025 28 21.1947 28 22.1707C28 23.5937 26.7655 24.7474 25.2427 24.7474H3.75728C2.23448 24.7474 1 23.5937 1 22.1707C1 21.1947 1.59007 20.3025 2.52419 19.866L3.02721 19.631C3.73155 19.3019 4.17647 18.6291 4.17647 17.8932V12.1316ZM14.5 3.96842C9.67563 3.96842 5.76471 7.62319 5.76471 12.1316V17.8932C5.76471 19.1913 4.9799 20.378 3.73749 20.9585L3.23447 21.1935C2.83841 21.3786 2.58824 21.7569 2.58824 22.1707C2.58824 22.774 3.11164 23.2631 3.75728 23.2631H25.2427C25.8884 23.2631 26.4118 22.774 26.4118 22.1707C26.4118 21.7569 26.1616 21.3786 25.7655 21.1935L25.2625 20.9585C24.0201 20.378 23.2353 19.1913 23.2353 17.8932V12.1316C23.2353 7.62319 19.3244 3.96842 14.5 3.96842Z" fill="white"/>
<path d="M14.5 3.96842C14.9386 3.96842 15.2941 3.63617 15.2941 3.22631V1.7421C15.2941 1.33225 14.9386 1 14.5 1C14.0614 1 13.7059 1.33225 13.7059 1.7421V3.22631C13.7059 3.63617 14.0614 3.96842 14.5 3.96842ZM14.5 3.96842C9.67563 3.96842 5.76471 7.62319 5.76471 12.1316V17.8932C5.76471 19.1913 4.9799 20.378 3.73749 20.9585L3.23447 21.1935C2.83841 21.3786 2.58824 21.7569 2.58824 22.1707C2.58824 22.774 3.11164 23.2631 3.75728 23.2631H25.2427C25.8884 23.2631 26.4118 22.774 26.4118 22.1707C26.4118 21.7569 26.1616 21.3786 25.7655 21.1935L25.2625 20.9585C24.0201 20.378 23.2353 19.1913 23.2353 17.8932V12.1316C23.2353 7.62319 19.3244 3.96842 14.5 3.96842ZM11.9351 26.5003C11.6553 26.1846 11.1547 26.1407 10.8169 26.4022C10.4792 26.6637 10.4322 27.1315 10.712 27.4471C11.1943 27.9912 11.775 28.4319 12.4258 28.7359C13.0773 29.0404 13.7827 29.2 14.5 29.2C15.2174 29.2 15.9227 29.0404 16.5743 28.7359C17.225 28.4319 17.8057 27.9912 18.288 27.4471C18.5678 27.1315 18.5208 26.6637 18.1831 26.4022C17.8454 26.1407 17.3448 26.1846 17.065 26.5003C16.713 26.8973 16.3032 27.2032 15.864 27.4084C15.4255 27.6133 14.9625 27.7158 14.5 27.7158C14.0375 27.7158 13.5746 27.6133 13.1361 27.4084C12.6968 27.2032 12.2871 26.8973 11.9351 26.5003ZM14.5 2.48421C8.79847 2.48421 4.17647 6.80348 4.17647 12.1316V17.8932C4.17647 18.6291 3.73155 19.3019 3.02721 19.631L2.52419 19.866C1.59007 20.3025 1 21.1947 1 22.1707C1 23.5937 2.23448 24.7474 3.75728 24.7474H25.2427C26.7655 24.7474 28 23.5937 28 22.1707C28 21.1947 27.4099 20.3025 26.4758 19.866L25.9728 19.631C25.2684 19.3019 24.8235 18.6291 24.8235 17.8932V12.1316C24.8235 6.80348 20.2015 2.48421 14.5 2.48421Z" stroke="white" stroke-width="1.5" stroke-linecap="round" stroke-linejoin="round"/>
</svg>
