<svg width="27" height="19" viewBox="0 0 27 19" fill="none" xmlns="http://www.w3.org/2000/svg">
<path d="M25.65 0H1.35C0.604547 0 0 0.604547 0 1.35V17.55C0 18.2955 0.604547 18.9 1.35 18.9H25.65C26.3955 18.9 27 18.2955 27 17.55V1.35C27 0.604547 26.3955 0 25.65 0ZM7.425 12.4824V13.1625C7.425 13.349 7.27397 13.5 7.0875 13.5H6.4125C6.22603 13.5 6.075 13.349 6.075 13.1625V12.4753C5.5987 12.4508 5.13548 12.2846 4.75158 11.9964C4.58705 11.8728 4.57861 11.6265 4.72753 11.4843L5.22323 11.0114C5.34009 10.9 5.51391 10.8949 5.65059 10.9806C5.81386 11.0827 5.99906 11.1375 6.19144 11.1375H7.37733C7.65155 11.1375 7.87514 10.8877 7.87514 10.581C7.87514 10.33 7.72284 10.109 7.50516 10.044L5.60672 9.47447C4.82245 9.23906 4.27444 8.48644 4.27444 7.64395C4.27444 6.60952 5.07811 5.76914 6.07458 5.74256V5.0625C6.07458 4.87603 6.22561 4.725 6.41208 4.725H7.08708C7.27355 4.725 7.42458 4.87603 7.42458 5.0625V5.74973C7.90088 5.7742 8.36409 5.94 8.748 6.22856C8.91253 6.35217 8.92097 6.59855 8.77205 6.74072L8.27634 7.21364C8.15948 7.32502 7.98567 7.33008 7.84898 7.24444C7.68572 7.14192 7.50052 7.0875 7.30814 7.0875H6.12225C5.84803 7.0875 5.62444 7.33725 5.62444 7.64395C5.62444 7.89497 5.77673 8.11603 5.99442 8.181L7.89286 8.75053C8.67712 8.98594 9.22514 9.73856 9.22514 10.581C9.22514 11.6159 8.42147 12.4559 7.425 12.4824ZM17.55 11.8125C17.55 11.999 17.399 12.15 17.2125 12.15H12.4875C12.301 12.15 12.15 11.999 12.15 11.8125V11.1375C12.15 10.951 12.301 10.8 12.4875 10.8H17.2125C17.399 10.8 17.55 10.951 17.55 11.1375V11.8125ZM24.3 11.8125C24.3 11.999 24.149 12.15 23.9625 12.15H20.5875C20.401 12.15 20.25 11.999 20.25 11.8125V11.1375C20.25 10.951 20.401 10.8 20.5875 10.8H23.9625C24.149 10.8 24.3 10.951 24.3 11.1375V11.8125ZM24.3 7.7625C24.3 7.94897 24.149 8.1 23.9625 8.1H12.4875C12.301 8.1 12.15 7.94897 12.15 7.7625V7.0875C12.15 6.90103 12.301 6.75 12.4875 6.75H23.9625C24.149 6.75 24.3 6.90103 24.3 7.0875V7.7625Z" fill="white"/>
</svg>
